<svg xmlns:inkscape="http://www.inkscape.org/namespaces/inkscape" xmlns:sodipodi="http://sodipodi.sourceforge.net/DTD/sodipodi-0.dtd" xmlns:xlink="http://www.w3.org/1999/xlink" xmlns="http://www.w3.org/2000/svg" xmlns:svg="http://www.w3.org/2000/svg" width="300" height="300" viewBox="0 0 79.375001 79.375" version="1.1" id="svg1" sodipodi:docname="LPGtorchlg.svg" inkscape:export-filename="LPGtorch-1.png" inkscape:export-xdpi="96" inkscape:export-ydpi="96" inkscape:version="1.3.2 (091e20e, 2023-11-25, custom)">
  <sodipodi:namedview id="namedview2" pagecolor="#ffffff" bordercolor="#000000" borderopacity="0.25" inkscape:showpageshadow="2" inkscape:pageopacity="0.0" inkscape:pagecheckerboard="false" inkscape:deskcolor="#d1d1d1" inkscape:zoom="6.07" inkscape:cx="149.91763" inkscape:cy="163.17957" inkscape:window-width="3840" inkscape:window-height="2066" inkscape:window-x="-11" inkscape:window-y="-11" inkscape:window-maximized="1" inkscape:current-layer="layer3"/>
  <defs id="defs1">
    <color-profile name="Agfa-:-Swop-Standard" xlink:href="../../../Windows/system32/spool/drivers/color/RSWOP.icm" id="color-profile1"/>
  </defs>
  <g id="layer3" style="display:inline" transform="translate(0.80813,0.241481)">
    <rect style="display:inline;opacity:1;fill:#ffffff;fill-opacity:1;stroke:#a5afa6;stroke-width:3.36127;stroke-linecap:round;stroke-linejoin:round;stroke-miterlimit:15;stroke-dasharray:none;stroke-opacity:1;paint-order:normal" id="rect1" width="64.372116" height="64.372124" x="6.6933084" y="7.2599573"/>
  </g>
  <g id="layer2" transform="translate(-109.32399,-61.355801)">
    <ellipse style="display:none;fill:#7fb2a5;fill-opacity:1;stroke:#ffd42a;stroke-width:0" id="path12" cx="147.94464" cy="104.09327" rx="14.111961" ry="2.6561306"/>
    <path id="rect13" d="m 107.81423,104.19548 -0.0147,-0.0373 c 16.37877,2.23506 24.01269,0.32879 28.72817,-0.34276 l -6.43806,18.4071 h -15.65293 l -6.55893,-17.86033 a 7.3653148,7.3653148 69.141065 0 0 -0.0635,-0.16673 z" style="display:inline;fill:#7fb2a5;fill-opacity:1;stroke:#ffd42a;stroke-width:0" transform="matrix(0.98215583,0,0,1,27.693309,4.3818307)"/>
  </g>
  <g id="layer1" transform="matrix(-0.99999999,0,0,0.99999999,185.40246,-62.566606)">
    <g id="g13" transform="matrix(0.95630356,-0.01775252,0.02445956,0.74671723,28.404362,35.452155)" style="display:inline">
      <path style="display:inline;fill:#f9e15e;fill-opacity:1;fill-rule:nonzero;stroke:none;stroke-width:0" d="m 126.75596,54.998654 c -0.19147,0.171516 -0.67253,0.5684 -1.22247,1.039348 -1.53423,1.31386 -1.19985,1.069356 -1.75968,1.546982 -0.81257,0.693245 -0.0754,0.125585 -0.29356,0.269847 -0.32318,0.213728 -0.80322,0.923841 -0.11492,0.541666 0.13608,0.182125 0.15173,0.442509 0.42339,0.842858 0.45228,0.66652 1.09444,1.673318 1.85434,3.026517 1.23685,2.202525 2.89699,5.528658 4.2864,9.48969 1.22568,3.494275 2.24741,7.516937 2.48242,11.511757 0.11205,1.904763 0.0453,3.798945 -0.25856,5.625488 -0.15053,1.835712 -0.27438,3.918161 -0.67054,5.76278 -0.7073,2.214882 -1.43271,4.558266 -1.80438,5.753073 1.12235,-0.791742 3.01173,-2.125126 5.19235,-3.725078 1.34824,-1.997697 2.32524,-4.163735 3.00127,-6.413992 0.68408,-2.277049 1.05518,-4.623788 1.20014,-6.950434 0.30266,-4.857751 -0.3762,-9.692631 -1.31492,-13.792493 -1.06389,-4.646551 -2.53127,-8.660175 -3.67028,-11.354098 -0.70479,-1.666945 -1.35441,-2.999143 -1.88612,-3.973814 -0.31867,-0.584138 -0.61258,-1.072893 -0.88524,-1.47824 -0.10083,-0.149899 -0.2006,-0.29116 -0.3,-0.424515 -0.0365,-0.04902 -0.4288,0.122183 -0.9586,0.404405 -1.29895,0.691949 -3.01793,2.044621 -3.30107,2.298253 z" id="path9" transform="matrix(1.0646244,0.01354579,-0.01158458,0.91048352,-13.118909,7.7139805)"/>
      <path style="display:inline;fill:#f9e15e;fill-opacity:1;fill-rule:nonzero;stroke:none;stroke-width:0" d="m 121.81686,63.595273 c -0.16791,0.116491 0.50773,-5.161143 -3.98341,-1.67018 -1.28918,0.817565 -6.23893,6.964225 -7.23712,12.495946 -0.85547,4.262683 -1.19065,8.506858 0.14345,12.661276 1.51551,4.719373 3.22201,9.032112 4.76421,11.214332 1.61789,2.289353 2.95036,2.357213 2.95036,2.357213 0,0 -0.23915,-0.696603 -0.99849,-2.972718 -0.75932,-2.276109 -1.95434,-6.12902 -2.3119,-10.538073 -0.31991,-3.944784 0.0816,-7.823852 1.5515,-11.397851 1.86793,-4.541641 4.98272,-7.457379 7.7937,-9.562535 0.14212,-0.106394 -2.84,-2.479219 -2.67213,-2.595715 z" id="path11"/>
    </g>
  </g>
</svg>
